<?xml version="1.0" encoding="utf-8"?>
<!-- Generator: Adobe Illustrator 21.1.0, SVG Export Plug-In . SVG Version: 6.00 Build 0)  -->
<svg version="1.1" id="Layer_1" xmlns="http://www.w3.org/2000/svg" xmlns:xlink="http://www.w3.org/1999/xlink" x="0px" y="0px"
	 viewBox="0 0 552 480" style="enable-background:new 0 0 552 480;" xml:space="preserve">
<style type="text/css">
	.st0{fill:#FF3E39;}
	.st1{fill:#FF0826;}
</style>
<path class="st0" d="M263,101.3c4.8,5.6,4.2,14-1.3,18.8c-5.6,4.8-14,4.2-18.8-1.3c-4.8-5.6-4.2-14,1.3-18.8
	C249.7,95.2,258.1,95.8,263,101.3z M170.8,121.7c-3.5,3-3.9,8.3-0.8,11.8c3,3.5,8.3,3.9,11.8,0.8c3.5-3,3.9-8.3,0.8-11.8
	C179.6,119,174.3,118.6,170.8,121.7z M176.1,14.3c-7.6,6.6-8.4,18.1-1.8,25.7c6.6,7.6,18.1,8.4,25.7,1.8c7.6-6.6,8.4-18.1,1.8-25.7
	C195.2,8.6,183.7,7.8,176.1,14.3z"/>
<g>
	<path class="st0" d="M241.7,344.3c-14.5,0-28.8,0.9-43.1,2.7c-1.3,16.2-7.9,30.3-19.8,42.3c-13.4,13.4-29.5,20-48.4,20
		c-18.9,0-35-6.7-48.4-20c-1.3-1.3-2.6-2.7-3.8-4.1c-15.4,8.2-30,17.4-43.8,27.7c3.4,4.4,7.1,8.7,11.2,12.7
		c23.3,23.3,51.6,35,84.7,35c33.1,0,61.4-11.7,84.7-35c14.4-14.4,24.3-30.6,29.8-48.6v83.6h51.3v-112
		C278.3,345.8,260.1,344.3,241.7,344.3z"/>
	<path class="st0" d="M484.5,442.7v17.9h17.2C496.2,454.5,490.5,448.5,484.5,442.7z"/>
	<path class="st0" d="M364.7,366.8v93.9h51.3v-69.6C399.6,381.6,382.4,373.4,364.7,366.8z"/>
</g>
<g>
	<g>
		<path class="st1" d="M244.3,330.5c17.6,0,35,1.4,52.1,4v-62c18.9,0,35,6.7,48.4,20c13.4,13.4,20,29.5,20,48.4v11.4
			c17.8,6.7,35,14.8,51.3,24.2v-35.7c0-33.1-11.7-61.4-35-84.7c-23.3-23.3-51.6-35-84.7-35h-46.1v-68.4h-51.3v180.8
			C213.8,331.5,229,330.5,244.3,330.5z"/>
		<path class="st1" d="M72.1,377C65.4,366.3,62,354.3,62,340.9c0-18.9,6.7-35,20-48.4c13.4-13.4,29.5-20,48.4-20
			c12.5,0,23.8,2.9,33.9,8.8v-55.6c-10.7-3-22-4.5-33.9-4.5c-33.1,0-61.4,11.7-84.7,35c-23.3,23.3-35,51.6-35,84.7
			c0,24.4,6.3,46.2,19,65.2C43,395.4,57.2,385.6,72.1,377z"/>
		<path class="st1" d="M484.5,340.9v87.5c10.4,10.1,20.1,20.9,29.1,32.3h22.2V340.9c0-33.1-11.7-61.4-35-84.7
			c-23.3-23.3-51.6-35-84.7-35v51.3c18.9,0,35,6.7,48.4,20C477.8,305.9,484.5,322,484.5,340.9z"/>
	</g>
</g>
</svg>
